PathFileType	4	(X/Y/Z)	s05c0303.trc
DataRate	CameraRate	NumFrames	NumMarkers	Units	OrigDataRate	OrigDataStartFrame	OrigNumFrames
200	200	6	48	mm	200	1500	2000
Frame#	Time	racr			lacr			c7			jug			rlel			rdr			llel			ldr			s2			lic			ric			lasi			rasi			rpsi			lpsi			rgt			lgt			rth1			rth2			rth3			rth4			rlfc			rsh1			rsh2			rsh3			rsh4			rlmal			rcal			rtoe			rmt5			rmt1			lth1			lth2			lth4			lth3			llfc			lmfc			lsh1			lsh2			lsh3			lsh4			llmal			lcal			ltoe			lmt5			SBIKE			LBIKE			RBIKE			
		X1	Y1	Z1	X2	Y2	Z2	X3	Y3	Z3	X4	Y4	Z4	X5	Y5	Z5	X6	Y6	Z6	X7	Y7	Z7	X8	Y8	Z8	X9	Y9	Z9	X10	Y10	Z10	X11	Y11	Z11	X12	Y12	Z12	X13	Y13	Z13	X14	Y14	Z14	X15	Y15	Z15	X16	Y16	Z16	X17	Y17	Z17	X18	Y18	Z18	X19	Y19	Z19	X20	Y20	Z20	X21	Y21	Z21	X22	Y22	Z22	X23	Y23	Z23	X24	Y24	Z24	X25	Y25	Z25	X26	Y26	Z26	X27	Y27	Z27	X28	Y28	Z28	X29	Y29	Z29	X30	Y30	Z30	X31	Y31	Z31	X32	Y32	Z32	X33	Y33	Z33	X34	Y34	Z34	X35	Y35	Z35	X36	Y36	Z36	X37	Y37	Z37	X38	Y38	Z38	X39	Y39	Z39	X40	Y40	Z40	X41	Y41	Z41	X42	Y42	Z42	X43	Y43	Z43	X44	Y44	Z44	X45	Y45	Z45	X46	Y46	Z46	X47	Y47	Z47	X48	Y48	Z48	
1500	7.5000	742.978846	1232.856092	-139.767609	745.347249	1267.409351	-423.122490	744.369930	1332.717623	-286.581562	666.805571	1181.304216	-289.985945	544.418935	1087.721410	11.891664	677.810792	933.016118	-82.082180	542.665099	1101.644691	-582.132227	680.471585	914.067695	-486.449544	149.721483	1278.037941	-339.675741	310.395759	1242.910941	-456.161566	271.108117	1273.584625	-175.791187	333.167493	1180.252763	-412.483680	301.938007	1204.733375	-194.299102	188.385952	1320.423621	-294.924500	206.748163	1311.845778	-377.048200	191.092342	1162.158288	-151.606483	236.190725	1156.738566	-489.663356	263.840456	1061.971050	-123.604130	331.950793	1005.433401	-109.357424	361.606939	923.022937	-107.776364	361.406295	1026.700002	-114.209233	448.775952	796.471879	-116.122290	379.078935	707.803175	-97.029627	367.138830	620.072278	-107.445363	316.634870	551.305437	-115.508349	397.906574	610.498923	-128.678487	269.238167	428.436185	-125.849430	198.891451	405.183667	-174.790882	484.515704	331.210322	-154.272816	378.034826	328.427456	-94.042904	0.000000	0.000000	-0.000000	306.614449	1031.319502	-480.656861	363.909786	971.030269	-461.582606	392.105888	987.127725	-442.839830	384.980955	883.045371	-455.663061	419.962588	741.453036	-419.249230	383.255459	737.833733	-314.688742	320.487256	660.815211	-453.885156	271.461112	589.248749	-445.786954	191.621151	549.976906	-454.866256	287.453355	571.135774	-415.310999	107.159585	469.392353	-454.352159	45.495756	504.696027	-414.300936	121.973395	219.643073	-389.965178	65.627249	307.563826	-461.895445	-172.452606	898.143575	-275.783917	-52.957931	79.389487	-474.212068	-52.991821	79.375508	-76.539847	
1501	7.5050	744.791903	1231.739558	-141.266840	746.215369	1270.426932	-425.666047	744.774704	1333.323120	-287.188196	668.543215	1181.895496	-292.296306	546.283885	1087.942009	12.492206	678.085353	932.994247	-82.422598	542.782268	1102.331506	-581.666810	679.880411	913.422980	-486.557594	149.642824	1276.482504	-337.732452	309.760567	1243.535642	-454.830266	272.264252	1270.251133	-173.816746	332.666053	1180.403877	-411.865595	302.977688	1201.588840	-193.327021	188.479333	1318.355661	-292.112912	206.332123	1311.492005	-375.124208	191.477012	1158.007697	-150.581517	236.121403	1156.931814	-488.876776	262.758650	1056.302932	-123.714381	329.285837	997.796870	-110.221310	356.935301	914.630987	-109.778492	359.456746	1018.155295	-114.781222	442.104867	787.552295	-118.850024	373.125916	698.619434	-98.941986	362.498147	610.573456	-108.936744	313.132284	541.105965	-116.280089	393.442874	601.566236	-130.014907	267.788880	416.368547	-126.137596	197.142872	392.778285	-174.207871	483.928254	320.164485	-154.700047	377.521762	317.453953	-94.223945	0.000000	0.000000	-0.000000	307.958875	1031.798644	-481.166268	366.159323	972.464986	-461.988212	393.975194	988.962647	-443.039363	388.772658	884.833371	-456.558877	425.986978	743.874646	-419.437593	390.360765	739.562077	-315.306578	325.158874	665.930187	-454.102331	274.582344	595.623895	-445.907754	194.241676	557.722141	-454.743799	290.532099	576.696149	-415.594869	107.702650	479.815602	-454.744953	46.174626	515.494276	-414.644582	122.027477	230.462024	-390.143440	65.678259	318.276059	-462.117741	-172.427675	898.118125	-276.093154	-52.986060	79.337711	-474.262046	-53.040859	79.420547	-76.574006	
1502	7.5100	746.814739	1230.721562	-142.822775	746.187024	1273.142690	-427.311260	745.150275	1334.003394	-287.848130	670.273301	1182.518944	-294.552364	549.599908	1087.692448	11.594492	678.434050	933.027404	-82.671878	542.911902	1102.960364	-581.209107	679.630093	913.423742	-487.002146	149.640481	1274.794089	-335.085551	308.978256	1244.096233	-453.304334	273.580440	1266.887425	-171.778766	332.017378	1180.655930	-411.081669	304.246315	1198.219494	-192.243600	189.084569	1314.952712	-289.951762	206.262817	1311.762050	-374.267762	192.149069	1153.861217	-149.559761	235.769605	1157.075493	-487.933752	261.915549	1050.404391	-123.889654	326.526818	990.094710	-111.150377	352.138914	906.093726	-111.961264	357.847029	1009.390118	-115.791126	435.372542	778.360660	-122.163488	366.813889	689.285663	-100.648471	357.650588	601.069991	-110.443179	309.376193	530.936771	-116.982638	388.666985	592.507023	-131.621438	265.858328	404.640040	-126.244972	195.273597	380.495129	-174.000288	482.936919	310.350016	-154.215140	376.436496	306.529332	-94.368748	0.000000	0.000000	-0.000000	309.005254	1031.969011	-482.043797	368.192605	973.634029	-462.687514	395.546434	990.531484	-443.462548	392.383780	886.526611	-457.737227	432.006841	746.599340	-419.813766	396.824947	742.048455	-315.621766	329.735287	671.458157	-454.528302	277.722447	602.017702	-446.309765	196.488817	565.865961	-454.658650	293.607073	582.795433	-416.333151	108.299790	490.402401	-455.107818	46.798869	526.164301	-414.950573	122.863695	241.261436	-390.231521	66.373487	329.032831	-462.348805	-172.373872	897.929120	-276.572714	-52.983949	79.297459	-474.260734	-53.034975	79.406705	-76.587675	
1503	7.5150	749.058491	1230.323784	-142.249174	746.047385	1275.622550	-428.911995	745.416618	1334.699825	-288.190286	671.901667	1183.112503	-296.757938	551.820643	1088.367358	12.359262	678.899451	933.096242	-82.780660	543.080739	1103.544790	-580.289663	679.406053	913.305459	-486.751403	149.750280	1273.073167	-332.107572	308.118983	1244.502238	-451.703519	275.201367	1263.325240	-169.730185	331.339170	1180.894294	-410.309001	305.804798	1194.999627	-190.948646	189.111701	1312.619079	-286.505619	205.494423	1310.440431	-371.220152	193.058867	1149.524535	-148.460683	235.097753	1157.228689	-487.010667	261.034376	1044.296618	-124.055395	323.965291	982.241811	-112.043602	347.319920	897.476366	-114.332264	355.954267	1000.594713	-116.738469	428.588112	769.482263	-125.216249	360.629591	679.776178	-102.374038	352.651174	591.597859	-112.055901	305.413003	520.554615	-117.686069	383.670034	583.239351	-133.337961	263.481089	393.068068	-126.258179	192.997307	368.477768	-173.697960	481.007210	299.071092	-155.088743	374.718506	295.616945	-94.378855	0.000000	0.000000	-0.000000	309.766100	1031.953771	-483.063720	370.032209	974.668240	-463.672003	396.879899	992.003548	-444.035665	395.887851	888.082814	-459.152278	437.896264	749.916849	-420.687538	403.534915	744.601602	-316.020734	333.999269	677.419804	-454.751090	280.847281	609.029640	-446.950204	198.891762	574.462887	-454.967809	296.638729	588.998362	-417.380188	109.252457	501.124325	-455.348403	47.636946	536.862092	-415.276633	124.566155	252.310089	-390.359749	67.718917	339.835725	-462.566800	-172.525552	897.905628	-276.690015	-52.993397	79.268786	-474.276212	-52.983255	79.304850	-76.618541	
1504	7.5200	751.213482	1229.415904	-144.580266	745.727169	1277.996676	-430.484950	745.795068	1335.344214	-289.066049	673.423275	1183.590925	-298.994898	554.311390	1089.068519	13.163755	679.492904	933.197041	-82.827389	543.075580	1104.014146	-579.779317	679.410184	913.215571	-486.784406	149.800748	1271.243149	-328.694690	307.137620	1245.004751	-450.037932	276.990268	1259.689887	-167.616791	330.566700	1180.951949	-409.382687	307.701404	1191.559960	-189.512225	189.194144	1309.891385	-282.697566	204.827252	1309.173802	-367.824168	194.280854	1145.108225	-147.276362	234.255573	1157.241271	-485.684135	260.430095	1038.136793	-124.166252	321.611873	974.181926	-113.218035	342.510250	888.790860	-116.710657	354.106600	991.749517	-117.679874	421.548225	760.361782	-128.638816	354.413546	670.187991	-103.989019	347.486057	581.815917	-113.550425	301.367805	510.197468	-118.582309	378.423772	573.943073	-135.131461	260.733606	381.908781	-126.239799	190.269405	357.150783	-173.387726	478.681192	288.474658	-155.130341	372.389853	284.926263	-94.440879	0.000000	0.000000	-0.000000	310.315397	1031.886813	-484.021534	371.634858	975.817794	-464.652723	397.980140	993.522288	-444.644407	399.397835	889.699225	-460.717441	443.954474	753.025154	-421.082995	409.235533	747.279004	-316.430474	338.421464	683.596854	-455.282555	283.788233	616.090193	-447.396545	201.242240	583.307959	-455.200293	299.926749	595.110258	-419.200524	111.039131	511.985071	-455.947725	48.788817	547.511132	-415.424562	127.035899	263.477446	-390.386912	69.681063	350.626376	-462.667326	-172.622757	897.860498	-276.805008	-52.987581	79.288187	-474.254775	-53.035177	79.375493	-76.596868	
1505	7.5250	753.173159	1228.933659	-147.237508	745.193387	1280.115949	-432.104710	746.198468	1335.817628	-290.154182	674.830070	1184.099248	-301.261862	555.713983	1090.831483	14.854995	680.119389	933.301255	-83.222952	542.973095	1104.347766	-579.268423	679.438392	913.201636	-486.835081	149.525677	1269.577882	-325.030051	306.021833	1245.342019	-448.143379	278.951853	1255.965066	-165.522150	329.703522	1180.869863	-408.385303	309.492160	1187.967479	-188.516401	189.452984	1307.098818	-278.383138	204.184335	1308.019403	-364.365385	195.742205	1140.539640	-145.890012	233.217989	1157.252864	-484.191562	260.026453	1031.968023	-124.250366	319.391037	966.239978	-114.297771	337.596918	880.153851	-119.154945	352.168357	982.822268	-118.863569	414.361087	751.099586	-131.962538	348.603326	660.423405	-105.712577	342.393590	572.026087	-115.006831	296.956965	499.761744	-119.301207	372.951286	564.477290	-137.132010	257.832623	371.062724	-126.403289	187.081014	346.222698	-173.140939	475.808939	277.803716	-155.197724	369.600726	274.461642	-94.523593	0.000000	0.000000	-0.000000	310.689920	1031.898828	-484.822688	373.287098	976.972559	-465.641412	399.076321	995.063738	-445.355855	402.983573	891.583908	-462.270960	450.087583	756.708293	-421.944643	418.373832	750.390783	-316.870505	342.881715	690.013791	-455.890976	286.632803	623.896532	-447.784204	203.784454	592.390000	-455.366501	303.078357	601.768904	-420.323854	112.261389	522.434173	-455.588777	50.296724	558.271152	-415.644709	130.214661	274.489523	-390.402228	72.474685	361.332138	-462.987914	-172.593398	898.098159	-276.535685	-52.997949	79.303133	-474.230238	-53.018625	79.389545	-76.561976	
